<?xml version="1.0" encoding="UTF-8"?>
<svg xmlns="http://www.w3.org/2000/svg" xmlns:xlink="http://www.w3.org/1999/xlink" viewBox="0 0 64 64" width="64px" height="64px">
<g id="surface1394544">
<path style=" stroke:none;fill-rule:nonzero;fill:rgb(92.941177%,39.215687%,65.098041%);fill-opacity:1;" d="M 32 5 C 17.089844 5 5 17.089844 5 32 C 5 46.910156 17.089844 59 32 59 C 46.910156 59 59 46.910156 59 32 C 59 17.089844 46.910156 5 32 5 Z M 32 5 "/>
<path style=" stroke:none;fill-rule:nonzero;fill:rgb(100%,100%,100%);fill-opacity:1;" d="M 32 61 C 16.007812 61 3 47.988281 3 32 C 3 16.011719 16.007812 3 32 3 C 47.992188 3 61 16.011719 61 32 C 61 47.988281 47.992188 61 32 61 Z M 32 5 C 17.113281 5 5 17.113281 5 32 C 5 46.886719 17.113281 59 32 59 C 46.886719 59 59 46.886719 59 32 C 59 17.113281 46.886719 5 32 5 Z M 32 5 "/>
<path style=" stroke:none;fill-rule:nonzero;fill:rgb(100%,100%,100%);fill-opacity:1;" d="M 53.511719 41.15625 C 53.394531 41.15625 53.273438 41.132812 53.15625 41.089844 C 52.640625 40.894531 52.382812 40.316406 52.578125 39.800781 C 53.519531 37.3125 54 34.6875 54 32 C 54 29.746094 53.660156 27.527344 52.992188 25.398438 C 52.828125 24.871094 53.121094 24.308594 53.648438 24.144531 C 54.175781 23.980469 54.734375 24.273438 54.902344 24.796875 C 55.628906 27.121094 56 29.546875 56 32 C 56 34.929688 55.476562 37.792969 54.445312 40.511719 C 54.296875 40.910156 53.914062 41.15625 53.511719 41.15625 Z M 37.71875 56.304688 C 37.269531 56.304688 36.859375 55.996094 36.75 55.542969 L 36.273438 53.601562 C 36.140625 53.0625 36.46875 52.523438 37.007812 52.390625 C 37.535156 52.257812 38.082031 52.585938 38.214844 53.121094 L 38.691406 55.066406 C 38.820312 55.601562 38.492188 56.144531 37.957031 56.273438 C 37.878906 56.296875 37.796875 56.304688 37.71875 56.304688 Z M 42.273438 54.691406 C 41.902344 54.691406 41.542969 54.480469 41.371094 54.121094 L 40.515625 52.3125 C 40.277344 51.816406 40.488281 51.21875 40.988281 50.980469 C 41.488281 50.746094 42.085938 50.960938 42.320312 51.457031 L 43.179688 53.265625 C 43.414062 53.761719 43.203125 54.359375 42.703125 54.597656 C 42.5625 54.660156 42.417969 54.691406 42.273438 54.691406 Z M 46.40625 52.191406 C 46.105469 52.191406 45.804688 52.054688 45.609375 51.792969 L 44.40625 50.191406 C 44.074219 49.753906 44.164062 49.125 44.605469 48.792969 C 45.046875 48.464844 45.671875 48.550781 46.003906 48.992188 L 47.207031 50.589844 C 47.539062 51.03125 47.449219 51.660156 47.007812 51.992188 C 46.828125 52.125 46.617188 52.191406 46.40625 52.191406 Z M 49.953125 48.914062 C 49.71875 48.914062 49.480469 48.832031 49.289062 48.660156 L 47.796875 47.335938 C 47.382812 46.96875 47.34375 46.335938 47.710938 45.921875 C 48.078125 45.511719 48.710938 45.472656 49.121094 45.839844 L 50.617188 47.164062 C 51.03125 47.53125 51.070312 48.164062 50.703125 48.578125 C 50.503906 48.800781 50.230469 48.914062 49.953125 48.914062 Z M 52.777344 44.996094 C 52.605469 44.996094 52.433594 44.953125 52.277344 44.863281 L 50.546875 43.859375 C 50.066406 43.585938 49.902344 42.972656 50.179688 42.492188 C 50.457031 42.015625 51.066406 41.851562 51.546875 42.128906 L 53.277344 43.132812 C 53.757812 43.40625 53.917969 44.019531 53.644531 44.496094 C 53.457031 44.816406 53.121094 44.996094 52.777344 44.996094 Z M 52.777344 44.996094 "/>
<path style=" stroke:none;fill-rule:nonzero;fill:rgb(100%,100%,100%);fill-opacity:1;" d="M 32 56 C 26.105469 56 20.433594 53.84375 16.039062 49.921875 C 15.625 49.554688 15.589844 48.921875 15.957031 48.511719 C 16.324219 48.097656 16.957031 48.0625 17.367188 48.429688 C 21.828125 52.40625 27.71875 54.398438 33.746094 53.933594 C 34.296875 53.886719 34.78125 54.300781 34.824219 54.851562 C 34.867188 55.402344 34.453125 55.882812 33.902344 55.925781 C 33.269531 55.976562 32.628906 56 32 56 Z M 32 56 "/>
<path style=" stroke:none;fill-rule:nonzero;fill:rgb(100%,100%,100%);fill-opacity:1;" d="M 9.78125 38.972656 C 9.339844 38.972656 8.9375 38.675781 8.816406 38.230469 C 8.273438 36.210938 8 34.113281 8 32 C 8 18.765625 18.765625 8 32 8 C 38.226562 8 44.125 10.371094 48.613281 14.679688 C 49.011719 15.0625 49.027344 15.695312 48.644531 16.09375 C 48.261719 16.492188 47.628906 16.503906 47.230469 16.125 C 43.113281 12.175781 37.707031 10 32 10 C 19.867188 10 10 19.867188 10 32 C 10 33.9375 10.253906 35.859375 10.75 37.710938 C 10.890625 38.246094 10.574219 38.792969 10.042969 38.9375 C 9.953125 38.960938 9.867188 38.972656 9.78125 38.972656 Z M 9.78125 38.972656 "/>
<path style=" stroke:none;fill-rule:nonzero;fill:rgb(100%,100%,100%);fill-opacity:1;" d="M 26.714844 47 C 23.109375 46.992188 19.617188 46.007812 16.566406 44.144531 C 16.941406 44.175781 17.324219 44.191406 17.707031 44.191406 C 20.0625 44.191406 22.40625 43.59375 24.476562 42.46875 L 26.519531 41.359375 L 24.308594 40.640625 C 22.292969 39.984375 20.6875 38.40625 19.992188 36.410156 L 21.570312 35.832031 L 20.15625 34.722656 C 18.53125 33.449219 17.582031 31.546875 17.539062 29.484375 L 20.226562 30.574219 L 18.601562 27.980469 C 17.328125 25.894531 17.269531 23.296875 18.4375 21.160156 C 21.742188 25.132812 26.386719 27.628906 31.527344 28.195312 L 32.640625 28.316406 L 32.640625 26.578125 C 32.640625 24.84375 33.292969 23.1875 34.480469 21.921875 C 35.78125 20.535156 37.546875 19.769531 39.449219 19.769531 C 41.183594 19.769531 42.839844 20.421875 44.105469 21.609375 L 44.496094 21.976562 L 45.015625 21.855469 C 46.300781 21.554688 47.527344 21.074219 48.675781 20.429688 C 48.5 20.917969 48.257812 21.402344 47.964844 21.851562 L 46.199219 24.535156 L 49.546875 23.175781 C 48.75 24.300781 47.789062 25.304688 46.6875 26.148438 L 46.300781 26.449219 L 46.300781 27.410156 C 46.257812 32.269531 44.464844 36.964844 41.25 40.621094 C 37.6875 44.679688 32.550781 47.007812 27.152344 47.007812 C 27.007812 47.007812 26.859375 47.003906 26.714844 47 Z M 26.714844 47 "/>
<path style=" stroke:none;fill-rule:nonzero;fill:rgb(100%,100%,100%);fill-opacity:1;" d="M 49.488281 22.121094 L 48.800781 22.398438 C 49.207031 21.78125 49.523438 21.109375 49.738281 20.398438 C 49.867188 19.929688 49.59375 19.445312 49.125 19.316406 C 48.898438 19.257812 48.660156 19.285156 48.460938 19.398438 C 47.320312 20.078125 46.082031 20.578125 44.789062 20.878906 C 41.640625 17.929688 36.699219 18.09375 33.75 21.238281 C 32.394531 22.6875 31.640625 24.597656 31.640625 26.578125 C 31.640625 26.785156 31.640625 26.992188 31.640625 27.199219 C 26.730469 26.65625 22.226562 24.214844 19.101562 20.390625 C 18.792969 20.015625 18.238281 19.957031 17.863281 20.265625 C 17.78125 20.332031 17.714844 20.410156 17.660156 20.5 C 16.21875 22.980469 16.253906 26.050781 17.75 28.5 C 17.300781 28.316406 16.785156 28.535156 16.605469 28.984375 C 16.5625 29.085938 16.542969 29.191406 16.539062 29.300781 L 16.539062 29.398438 C 16.554688 31.789062 17.660156 34.035156 19.539062 35.511719 C 19.101562 35.671875 18.867188 36.144531 19 36.589844 C 19.773438 38.960938 21.628906 40.816406 24 41.589844 C 21.609375 42.890625 18.871094 43.417969 16.171875 43.101562 C 15.6875 43.046875 15.253906 43.394531 15.199219 43.878906 C 15.164062 44.207031 15.3125 44.527344 15.589844 44.710938 C 18.898438 46.847656 22.75 47.992188 26.691406 48 C 32.535156 48.136719 38.144531 45.675781 42 41.28125 C 45.375 37.441406 47.253906 32.519531 47.300781 27.410156 C 47.300781 27.25 47.300781 27.101562 47.300781 26.941406 C 48.585938 25.953125 49.699219 24.757812 50.601562 23.410156 C 50.863281 23.003906 50.75 22.457031 50.339844 22.191406 C 50.097656 22.035156 49.789062 22.007812 49.519531 22.121094 Z M 45.871094 25.800781 C 45.632812 25.972656 45.496094 26.253906 45.511719 26.550781 C 45.511719 26.828125 45.511719 27.121094 45.511719 27.410156 C 45.5 37.816406 37.058594 46.242188 26.652344 46.234375 C 24.238281 46.230469 21.847656 45.765625 19.609375 44.859375 C 22.253906 44.535156 24.761719 43.5 26.859375 41.859375 C 27.242188 41.558594 27.304688 41.003906 27.003906 40.625 C 26.839844 40.417969 26.59375 40.296875 26.328125 40.289062 C 24.246094 40.253906 22.324219 39.148438 21.25 37.359375 C 21.910156 37.351562 22.5625 37.261719 23.199219 37.089844 C 23.667969 36.960938 23.941406 36.472656 23.8125 36.007812 C 23.722656 35.6875 23.464844 35.445312 23.140625 35.378906 C 20.796875 34.898438 18.957031 33.085938 18.441406 30.75 C 19.113281 30.960938 19.8125 31.078125 20.519531 31.101562 C 20.914062 31.121094 21.269531 30.867188 21.378906 30.488281 C 21.5 30.117188 21.355469 29.707031 21.03125 29.488281 C 18.769531 27.980469 17.789062 25.152344 18.628906 22.570312 C 22.277344 26.472656 27.296875 28.804688 32.628906 29.078125 C 32.90625 29.097656 33.175781 28.984375 33.351562 28.769531 C 33.523438 28.558594 33.59375 28.277344 33.53125 28.011719 C 32.78125 24.746094 34.816406 21.496094 38.078125 20.746094 C 40.171875 20.265625 42.363281 20.929688 43.839844 22.488281 C 44.046875 22.710938 44.351562 22.808594 44.648438 22.75 C 45.363281 22.609375 46.066406 22.414062 46.75 22.171875 C 46.351562 22.609375 45.890625 22.984375 45.378906 23.289062 C 44.984375 23.570312 44.890625 24.121094 45.175781 24.515625 C 45.363281 24.78125 45.679688 24.921875 46 24.878906 C 46.421875 24.828125 46.835938 24.761719 47.25 24.679688 C 46.816406 25.085938 46.355469 25.460938 45.871094 25.800781 Z M 45.871094 25.800781 "/>
</g>
</svg>
