<svg viewBox="0 0 250 200" xmlns="http://www.w3.org/2000/svg">
  <defs>
    <clipPath clipPathUnits="userSpaceOnUse" id="clipPath18">
      <path d="M 0,500 H 500 V 0 H 0 Z" id="path16"></path>
    </clipPath>
    <clipPath clipPathUnits="userSpaceOnUse" id="clipPath94">
      <path d="m 336.104,179.321 h 9.671 v -10 h -9.671 z" id="path92"></path>
    </clipPath>
    <clipPath clipPathUnits="userSpaceOnUse" id="clipPath126">
      <path d="m 376.011,185.604 h 61.276 v -34.248 h -61.276 z" id="path124"></path>
    </clipPath>
    <clipPath clipPathUnits="userSpaceOnUse" id="clipPath210">
      <path d="m 284.489,267.765 h 9.672 v -10 h -9.672 z" id="path208"></path>
    </clipPath>
    <clipPath clipPathUnits="userSpaceOnUse" id="clipPath242">
      <path d="m 176.415,251.496 h 82.231 v -23.529 h -82.231 z" id="path240"></path>
    </clipPath>
    <clipPath clipPathUnits="userSpaceOnUse" id="clipPath282">
      <path d="m 139.289,389.467 h 9.674 v -10 h -9.674 z" id="path280"></path>
    </clipPath>
    <clipPath clipPathUnits="userSpaceOnUse" id="clipPath350">
      <path d="M 63.8369,367.875 H 120.322 V 349.601 H 63.8369 Z" id="path348"></path>
    </clipPath>
    <clipPath clipPathUnits="userSpaceOnUse" id="clipPath438">
      <path d="m 232.594,440.964 h 9.674 v -10 h -9.674 z" id="path436"></path>
    </clipPath>
    <clipPath clipPathUnits="userSpaceOnUse" id="clipPath462">
      <path d="m 254.593,440.464 h 9.672 v -10 h -9.672 z" id="path460"></path>
    </clipPath>
    <clipPath clipPathUnits="userSpaceOnUse" id="clipPath498">
      <path d="m 275.338,408.198 h 24.639 v -38.547 h -24.639 z" id="path496"></path>
    </clipPath>
    <clipPath clipPathUnits="userSpaceOnUse" id="clipPath582">
      <path d="m 426.238,401.254 h 9.672 v -10 h -9.672 z" id="path580"></path>
    </clipPath>
    <clipPath clipPathUnits="userSpaceOnUse" id="clipPath606">
      <path d="m 453.642,405.604 h 9.671 v -10 h -9.671 z" id="path604"></path>
    </clipPath>
    <clipPath clipPathUnits="userSpaceOnUse" id="clipPath642">
      <path d="m 382.998,366.678 h 43.415 v -47.681 h -43.415 z" id="path640"></path>
    </clipPath>
    <clipPath clipPathUnits="userSpaceOnUse" id="clipPath726">
      <path d="m 74.2715,181.381 h 9.6738 v -10 h -9.6738 z" id="path724"></path>
    </clipPath>
    <clipPath clipPathUnits="userSpaceOnUse" id="clipPath758">
      <path d="M 49.4653,139.134 H 79.7642 V 85.3115 H 49.4653 Z" id="path756"></path>
    </clipPath>
    <clipPath clipPathUnits="userSpaceOnUse" id="clipPath846">
      <path d="m 268.062,153.797 h 9.671 v -10 h -9.671 z" id="path844"></path>
    </clipPath>
    <clipPath clipPathUnits="userSpaceOnUse" id="clipPath870">
      <path d="m 245.512,153.752 h 9.673 v -10 h -9.673 z" id="path868"></path>
    </clipPath>
    <clipPath clipPathUnits="userSpaceOnUse" id="clipPath906">
      <path d="m 191.247,132.533 h 39.634 V 89.3066 h -39.634 z" id="path904"></path>
    </clipPath>
    <clipPath clipPathUnits="userSpaceOnUse" id="clipPath1002">
      <path d="M 0,500 H 500 V 0 H 0 Z" id="path1000"></path>
    </clipPath>
  </defs>
  <g id="g8" transform="matrix(1.333333, 0, 0, -1.333333, 214.902893, 593.595764)">
    <g id="g12" transform="matrix(1, 0, 0, 1, -168.476593, 11.117766)">
      <g id="g14" clip-path="url(#clipPath18)">
        <g id="g252" transform="translate(119.9385,334.5322)">
          <path d="m 0,0 c -3.5,-4.437 -7.224,-9.053 -7.905,-14.834 -0.692,-5.877 4.646,-10.934 8.504,-14.478 1.184,-1.089 2.957,0.674 1.767,1.767 -3.453,3.173 -7.367,6.766 -7.788,11.722 -0.434,5.103 4.29,10.379 7.19,14.055 C 2.754,-0.517 0.998,1.265 0,0" style="fill:#634e42;fill-opacity:1;fill-rule:nonzero;stroke:none" id="path254"></path>
        </g>
        <g id="g256" transform="translate(118.1348,304.4941)">
          <path d="M 0,0 C 0.11,1.431 -0.075,4.377 1.637,4.917 3.353,5.458 5.965,3.468 7.584,2.961 9.128,2.479 9.783,4.893 8.25,5.373 5.871,6.116 2.859,8.415 0.286,7.079 -2.281,5.747 -2.306,2.521 -2.5,0 -2.624,-1.608 -0.123,-1.597 0,0" style="fill:#634e42;fill-opacity:1;fill-rule:nonzero;stroke:none" id="path258"></path>
        </g>
        <g id="g260" transform="translate(45.6006,360.1836)">
          <path d="m 0,0 c 26,7 36,44 62,51 24,7 53,1 57,-25 4,-30 -13,-51 -41,-57 -30,-6 -49,6 -69,26 -3,2 -5,4 -7,6" style="fill:#ff5670;fill-opacity:1;fill-rule:nonzero;stroke:none" id="path262"></path>
        </g>
        <g id="g264" transform="translate(118.7178,348.1084)">
          <path d="m 0,0 c -6.555,-0.478 -13.695,-1.357 -19.616,-4.364 -5.687,-2.888 -8.423,-7.545 -9.1,-13.088 9.8,-3.295 20.677,-4.057 33.599,-1.473 8.518,1.825 16.011,5.047 22.212,9.48 C 29.097,1.46 6.681,0.486 0,0" style="fill:#fd798c;fill-opacity:1;fill-rule:nonzero;stroke:none" id="path266"></path>
        </g>
        <g id="g268" transform="translate(85.4834,396.1123)">
          <path d="m 0,0 c -0.33,-1.382 0.115,-2.646 2.048,-3.111 2.347,-0.567 4.948,0.383 6.637,2.05 0.393,0.389 1.12,-0.129 0.785,-0.605 -2.174,-3.09 -4.567,-7.897 1.246,-9.036 3.774,-0.738 7.138,1.099 9.803,3.641 0.38,0.364 0.924,-0.005 0.835,-0.486 -0.494,-2.645 -1.245,-6.374 0.347,-8.808 2.421,-3.703 7.36,-2.25 9.818,0.627 0.354,0.415 0.919,-0.04 0.835,-0.486 -0.403,-2.176 -1.448,-5.568 0.062,-7.544 3.049,-3.991 7.545,-0.735 9.69,2.262 0.262,0.365 0.974,0.291 0.932,-0.252 -0.163,-2.091 -0.848,-4.431 -0.375,-6.517 0.414,-1.825 2.036,-3.566 4.17,-2.709 1.481,0.594 2.576,1.645 3.686,2.746 0.327,0.326 0.821,0.069 0.853,-0.353 0.187,-2.47 -0.274,-6.657 2.396,-8.004 4.547,-2.293 7.54,1.813 9.838,5.089 0.295,0.421 0.883,0.251 0.932,-0.252 0.201,-2.083 -0.324,-5.545 1.532,-7.017 3.705,-2.936 5.373,1.675 6.87,4.103 0.242,0.392 0.763,0.277 0.914,-0.119 0.523,-1.373 1.163,-2.55 1.974,-3.525 3.459,8.137 4.715,17.681 3.289,28.377 -4,26 -33,32 -57,25 C 13.327,12.705 6.369,6.905 0,0" style="fill:#fd798c;fill-opacity:1;fill-rule:nonzero;stroke:none" id="path270"></path>
        </g>
        <g id="g272" transform="translate(144.126,376.9668)">
          <path d="M 0,0 C 9.673,0 9.673,15 0,15 -9.673,15 -9.673,0 0,0" style="fill:#382c26;fill-opacity:1;fill-rule:nonzero;stroke:none" id="path274"></path>
        </g>
        <g id="g276">
          <g id="g278"></g>
          <g id="g290">
            <g clip-path="url(#clipPath282)" opacity="0.699997" id="g288">
              <g transform="translate(144.126,379.4668)" id="g286">
                <path d="M 0,0 C 6.449,0 6.449,10 0,10 -6.449,10 -6.449,0 0,0" style="fill:#634e42;fill-opacity:1;fill-rule:nonzero;stroke:none" id="path284"></path>
              </g>
            </g>
          </g>
        </g>
        <g id="g292" transform="translate(146.126,384.5918)">
          <path d="M 0,0 C 2.418,0 2.418,3.75 0,3.75 -2.418,3.75 -2.418,0 0,0" style="fill:#ffffff;fill-opacity:1;fill-rule:nonzero;stroke:none" id="path294"></path>
        </g>
        <g id="g296" transform="translate(166.376,384.3643)">
          <path d="M 0,0 11,-6 0,-12 c -3.313,-1.808 -7.465,-0.586 -9.273,2.727 C -11.08,-5.959 -9.859,-1.808 -6.545,0 -4.443,1.146 -1.964,1.052 0,0" style="fill:#f29d01;fill-opacity:1;fill-rule:nonzero;stroke:none" id="path298"></path>
        </g>
        <g id="g300" transform="translate(134.377,371.4062)">
          <path d="M 0,0 C 3.386,0 3.386,5.25 0,5.25 -3.386,5.25 -3.386,0 0,0" style="fill:#e61e73;fill-opacity:1;fill-rule:nonzero;stroke:none" id="path302"></path>
        </g>
        <g id="g304" transform="translate(124.0415,410.2378)">
          <path d="m 0,0 c 0,0 -0.091,0.709 -0.228,1.773 -0.074,0.491 -0.143,1.073 -0.282,1.707 -0.115,0.641 -0.285,1.305 -0.458,1.982 -0.087,0.339 -0.2,0.662 -0.299,0.993 -0.098,0.333 -0.206,0.654 -0.329,0.956 -0.221,0.623 -0.47,1.187 -0.706,1.665 -0.214,0.496 -0.461,0.863 -0.613,1.143 -0.159,0.276 -0.251,0.434 -0.251,0.434 0,0 0.149,-0.105 0.408,-0.287 0.254,-0.189 0.655,-0.435 1.067,-0.803 C -1.257,9.212 -0.765,8.78 -0.272,8.278 -0.013,8.034 0.238,7.77 0.482,7.492 0.728,7.216 0.995,6.938 1.233,6.646 1.711,6.062 2.197,5.466 2.606,4.883 3.038,4.314 3.403,3.731 3.729,3.236 4.319,2.298 4.712,1.673 4.712,1.673 5.465,0.475 5.104,-1.106 3.906,-1.859 2.708,-2.612 1.127,-2.251 0.374,-1.054 0.172,-0.732 0.05,-0.383 0.003,-0.029 Z" style="fill:#ff5670;fill-opacity:1;fill-rule:nonzero;stroke:none" id="path306"></path>
        </g>
        <g id="g308" transform="translate(124.5107,410.4609)">
          <path d="M 0,0 2.5,12.27 5,0 C 5.281,-1.381 4.39,-2.728 3.009,-3.009 1.629,-3.291 0.281,-2.399 0,-1.019 -0.07,-0.676 -0.064,-0.323 0,0" style="fill:#ff5670;fill-opacity:1;fill-rule:nonzero;stroke:none" id="path310"></path>
        </g>
        <g id="g312" transform="translate(124.8594,411.1206)">
          <path d="m 0,0 c 0,0 0.552,0.633 1.379,1.582 0.425,0.476 0.867,1.022 1.465,1.631 0.567,0.592 1.173,1.223 1.778,1.854 0.659,0.587 1.334,1.147 1.947,1.668 0.315,0.253 0.583,0.528 0.911,0.716 0.311,0.201 0.603,0.391 0.874,0.567 1.064,0.683 1.773,1.138 1.773,1.138 0,0 -0.491,-0.679 -1.227,-1.698 C 8.721,7.209 8.527,6.938 8.321,6.652 8.102,6.383 7.951,6.027 7.761,5.695 7.399,5.015 7.009,4.311 6.647,3.602 6.342,2.856 6.036,2.111 5.749,1.413 5.461,0.75 5.226,0.017 5.01,-0.567 4.586,-1.754 4.303,-2.546 4.303,-2.546 3.83,-3.871 2.373,-4.561 1.048,-4.087 c -1.324,0.473 -2.014,1.93 -1.541,3.254 0.11,0.307 0.272,0.579 0.473,0.811 z" style="fill:#ff5670;fill-opacity:1;fill-rule:nonzero;stroke:none" id="path314"></path>
        </g>
        <g id="g316" transform="translate(50.6045,363.7812)">
          <path d="m 0,0 c 0,0 -0.347,0.25 -0.954,0.687 -0.298,0.227 -0.683,0.469 -1.117,0.738 -0.426,0.275 -0.922,0.57 -1.477,0.883 -1.094,0.635 -2.413,1.323 -3.83,2.168 -0.714,0.413 -1.44,0.895 -2.182,1.415 -0.723,0.54 -1.492,1.166 -2.114,1.688 -0.656,0.547 -1.312,1.095 -1.957,1.635 -0.643,0.55 -1.272,1.166 -1.887,1.73 -0.602,0.557 -1.184,1.097 -1.735,1.608 -0.53,0.483 -1.031,0.94 -1.493,1.362 -0.923,0.844 -1.692,1.398 -2.221,1.849 -0.529,0.429 -0.83,0.675 -0.83,0.675 l -0.172,0.14 c -1.962,1.594 -2.26,4.478 -0.665,6.44 1.594,1.962 4.478,2.26 6.44,0.665 0.396,-0.322 0.733,-0.713 0.991,-1.121 0,0 0.248,-0.395 0.681,-1.084 0.41,-0.686 1.084,-1.676 1.712,-2.829 0.315,-0.576 0.657,-1.2 1.018,-1.86 0.339,-0.631 0.697,-1.298 1.066,-1.987 0.368,-0.675 0.709,-1.375 1.133,-2.095 0.436,-0.721 0.879,-1.453 1.322,-2.185 0.464,-0.766 0.846,-1.376 1.28,-2.024 C -6.533,7.87 -6.059,7.245 -5.547,6.657 -4.542,5.469 -3.506,4.375 -2.655,3.394 -1.802,2.429 -1.101,1.558 -0.68,0.959 -0.247,0.349 0,0 0,0" style="fill:#bf4155;fill-opacity:1;fill-rule:nonzero;stroke:none" id="path318"></path>
        </g>
        <g id="g320" transform="translate(45.8545,362.2812)">
          <path d="M 0,0 C 0,0 -1.432,-0.125 -3.58,-0.312 -4.117,-0.359 -4.698,-0.41 -5.313,-0.463 -5.931,-0.509 -6.569,-0.617 -7.231,-0.697 -8.543,-0.872 -9.942,-1.058 -11.341,-1.245 -12.74,-1.478 -14.14,-1.71 -15.452,-1.929 -16.755,-2.133 -17.98,-2.38 -19.025,-2.58 -21.11,-2.982 -22.5,-3.25 -22.5,-3.25 l -0.059,-0.011 c -2.492,-0.481 -4.901,1.15 -5.381,3.642 -0.48,2.491 1.15,4.901 3.642,5.381 0.605,0.116 1.229,0.103 1.798,-0.012 l 3.572,-0.737 c 1.069,-0.222 2.311,-0.468 3.649,-0.791 1.328,-0.311 2.746,-0.641 4.163,-0.972 C -9.702,2.872 -8.289,2.493 -6.964,2.138 -6.31,1.954 -5.669,1.805 -5.083,1.611 -4.495,1.425 -3.938,1.249 -3.425,1.085 -1.37,0.434 0,0 0,0" style="fill:#bf4155;fill-opacity:1;fill-rule:nonzero;stroke:none" id="path322"></path>
        </g>
        <g id="g324" transform="translate(52.46,361.0312)">
          <path d="m 0,0 c -0.75,7 -0.638,25.585 -9,24.75 -13.167,-1.314 1.5,-15 2.5,-16.75 -3.25,2 -15.75,10.5 -18,2.5 -1.75,-7.25 10.25,-9 14.75,-8.75 -3.25,0 -14.25,0.25 -16.5,-4 -1.75,-3.5 1.25,-5 4,-5.75 8.75,-2 16.5,3 23,7.75" style="fill:#ff5670;fill-opacity:1;fill-rule:nonzero;stroke:none" id="path326"></path>
        </g>
        <g id="g328" transform="translate(47.1045,372.2812)">
          <path d="M 0,0 C 0,0 -0.279,0.234 -0.714,0.672 -0.929,0.893 -1.198,1.156 -1.476,1.476 -1.764,1.788 -2.082,2.146 -2.384,2.581 -2.695,3.008 -3.022,3.479 -3.357,3.989 -3.702,4.5 -3.988,5.046 -4.304,5.62 -4.61,6.193 -4.932,6.79 -5.196,7.412 -5.478,8.029 -5.737,8.667 -6,9.305 c -0.982,2.562 -1.676,5.199 -2.048,7.225 -0.174,1.023 -0.318,1.871 -0.377,2.49 C -8.493,19.633 -8.5,20 -8.5,20 c 0,0 0.248,-0.264 0.627,-0.753 0.376,-0.489 0.912,-1.2 1.447,-2.09 1.1,-1.778 2.263,-4.255 3.224,-6.773 0.241,-0.626 0.485,-1.251 0.698,-1.878 0.216,-0.623 0.428,-1.236 0.634,-1.83 0.19,-0.599 0.373,-1.178 0.548,-1.727 0.176,-0.542 0.33,-1.064 0.465,-1.554 0.246,-0.99 0.54,-1.83 0.661,-2.434 C -0.052,0.36 0,0 0,0" style="fill:#bf4155;fill-opacity:1;fill-rule:nonzero;stroke:none" id="path330"></path>
        </g>
        <g id="g332" transform="translate(42.1045,366.0312)">
          <path d="m 0,0 c 0,0 -0.403,0.013 -1.088,0.092 -0.343,0.029 -0.756,0.092 -1.23,0.236 -0.477,0.123 -1.039,0.266 -1.581,0.483 -1.13,0.398 -2.367,0.993 -3.636,1.636 -0.623,0.317 -1.266,0.645 -1.92,0.978 -0.646,0.3 -1.285,0.65 -1.933,0.894 -0.694,0.305 -1.386,0.609 -2.069,0.909 -0.689,0.305 -1.357,0.632 -1.997,0.948 -0.641,0.317 -1.254,0.642 -1.832,0.96 -0.577,0.297 -1.119,0.592 -1.618,0.875 -0.499,0.285 -0.951,0.568 -1.364,0.783 -0.412,0.217 -0.766,0.437 -1.061,0.612 C -21.917,9.761 -22.25,10 -22.25,10 c 0,0 0.398,0.015 1.09,-0.021 0.686,-0.045 1.698,-0.084 2.844,-0.332 0.576,-0.114 1.2,-0.25 1.856,-0.409 0.64,-0.177 1.312,-0.373 2,-0.594 0.69,-0.221 1.393,-0.456 2.098,-0.72 0.353,-0.132 0.712,-0.257 1.065,-0.401 l 1.082,-0.444 c 0.777,-0.317 1.477,-0.711 2.164,-1.11 0.67,-0.404 1.307,-0.834 1.896,-1.257 1.181,-0.847 2.203,-1.693 3.092,-2.386 0.445,-0.37 0.839,-0.669 1.201,-0.951 C -1.505,1.093 -1.175,0.831 -0.881,0.648 -0.312,0.256 0,0 0,0" style="fill:#bf4155;fill-opacity:1;fill-rule:nonzero;stroke:none" id="path334"></path>
        </g>
        <g id="g336" transform="translate(38.3545,356.5312)">
          <path d="m 0,0 c 0,0 -0.245,-0.17 -0.684,-0.407 -0.444,-0.233 -1.057,-0.565 -1.85,-0.844 -0.789,-0.286 -1.732,-0.566 -2.71,-0.783 -0.996,-0.217 -2.025,-0.415 -3.072,-0.554 -0.513,-0.078 -1.024,-0.161 -1.535,-0.211 -0.503,-0.063 -1,-0.125 -1.48,-0.185 -0.475,-0.068 -0.963,-0.066 -1.393,-0.147 -0.439,-0.06 -0.863,-0.105 -1.263,-0.137 -0.406,-0.018 -0.768,-0.065 -1.093,-0.111 -0.323,-0.05 -0.622,-0.067 -0.868,-0.088 -0.494,-0.038 -0.802,-0.033 -0.802,-0.033 0,0 0.183,0.225 0.546,0.572 0.183,0.172 0.406,0.389 0.681,0.608 0.269,0.232 0.58,0.489 0.953,0.691 0.367,0.216 0.774,0.442 1.215,0.667 0.438,0.243 0.92,0.386 1.42,0.569 0.501,0.165 1.025,0.36 1.56,0.456 0.534,0.124 1.083,0.218 1.631,0.317 1.086,0.137 2.188,0.225 3.198,0.221 1.026,0.002 1.95,-0.05 2.762,-0.14 C -1.972,0.354 -1.265,0.285 -0.777,0.179 -0.286,0.087 0,0 0,0" style="fill:#bf4155;fill-opacity:1;fill-rule:nonzero;stroke:none" id="path338"></path>
        </g>
        <g id="g340" transform="translate(58.3936,370.0234)">
          <path d="M 0,0 C 14.765,2.828 82.294,35.337 67.829,-10.779 59.972,-36.938 1.32,-27.042 -2.854,-1.36" style="fill:#bf4155;fill-opacity:1;fill-rule:nonzero;stroke:none" id="path342"></path>
        </g>
        <g id="g344">
          <g id="g346"></g>
          <g id="g358">
            <g clip-path="url(#clipPath350)" opacity="0.199997" id="g356">
              <g transform="translate(120.3213,367.7607)" id="g354">
                <path d="m 0,0 c -0.099,-1.089 -0.436,-2.185 -0.809,-3.217 -0.374,-1.046 -0.828,-2.06 -1.347,-3.04 -0.507,-0.987 -1.083,-1.937 -1.693,-2.868 -0.611,-0.932 -1.293,-1.82 -2.029,-2.675 -0.739,-0.854 -1.54,-1.671 -2.513,-2.365 -0.477,-0.353 -1.023,-0.661 -1.642,-0.898 -0.629,-0.208 -1.416,-0.35 -2.209,-0.05 -0.807,0.308 -1.273,0.958 -1.608,1.537 -0.3,0.597 -0.464,1.198 -0.577,1.784 l -0.133,0.873 -0.055,0.86 c -0.033,0.574 0.008,1.133 0.009,1.698 l 1.295,-0.48 c -1.435,-1.516 -2.934,-2.948 -4.506,-4.305 -0.791,-0.671 -1.572,-1.354 -2.4,-1.982 -0.817,-0.642 -1.656,-1.259 -2.555,-1.799 -0.446,-0.275 -0.905,-0.537 -1.399,-0.743 -0.484,-0.223 -1.011,-0.377 -1.565,-0.463 -0.554,-0.08 -1.189,0.011 -1.709,0.341 -0.542,0.324 -0.852,0.862 -1.087,1.374 -0.212,0.526 -0.331,1.064 -0.414,1.601 -0.069,0.535 -0.113,1.07 -0.113,1.6 -0.031,0.536 0.018,1.056 0.024,1.587 l 0.122,1.571 1.306,-0.343 -0.428,-1.051 c -0.123,-0.359 -0.33,-0.686 -0.53,-1.017 -0.198,-0.332 -0.387,-0.669 -0.659,-0.963 -0.265,-0.295 -0.477,-0.631 -0.808,-0.878 -0.32,-0.251 -0.593,-0.557 -0.977,-0.74 -0.364,-0.206 -0.72,-0.429 -1.144,-0.533 -0.205,-0.064 -0.41,-0.133 -0.62,-0.183 l -0.655,-0.056 c -0.437,-0.071 -0.876,0.053 -1.315,0.107 -0.42,0.12 -0.85,0.272 -1.231,0.484 -0.36,0.246 -0.763,0.459 -1.043,0.79 l -0.452,0.467 c -0.134,0.167 -0.24,0.35 -0.36,0.526 -0.112,0.18 -0.24,0.355 -0.334,0.541 l -0.242,0.575 c -0.183,0.382 -0.28,0.777 -0.361,1.176 l -0.133,0.597 -0.045,0.597 c -0.019,0.398 -0.079,0.803 -0.029,1.19 l 0.099,1.172 1.903,-0.8 -0.674,-0.818 c -0.227,-0.27 -0.49,-0.507 -0.734,-0.76 -0.24,-0.26 -0.528,-0.469 -0.795,-0.701 -0.264,-0.235 -0.558,-0.437 -0.857,-0.631 -0.29,-0.206 -0.601,-0.383 -0.926,-0.545 -0.311,-0.178 -0.642,-0.329 -0.991,-0.453 -0.334,-0.146 -0.695,-0.25 -1.069,-0.331 -0.357,-0.109 -0.76,-0.13 -1.153,-0.159 -0.389,-0.041 -0.825,0.054 -1.231,0.104 -0.407,0.166 -0.847,0.249 -1.193,0.55 -0.179,0.133 -0.365,0.263 -0.526,0.41 l -0.4,0.511 c -0.298,0.336 -0.377,0.729 -0.552,1.098 -0.153,0.373 -0.169,0.743 -0.253,1.114 -0.089,0.375 -0.039,0.722 -0.058,1.083 l -0.002,0.535 0.062,0.516 0.126,1.025 1.402,-0.634 -0.582,-0.587 c -0.186,-0.2 -0.416,-0.369 -0.627,-0.55 -0.209,-0.182 -0.445,-0.341 -0.687,-0.492 -0.23,-0.163 -0.479,-0.303 -0.748,-0.421 -0.252,-0.137 -0.528,-0.238 -0.814,-0.318 -0.274,-0.105 -0.579,-0.134 -0.874,-0.176 -0.294,-0.046 -0.604,0 -0.901,0.008 -0.291,0.077 -0.598,0.103 -0.866,0.235 -0.275,0.114 -0.544,0.234 -0.775,0.409 -0.252,0.149 -0.462,0.339 -0.662,0.538 -0.216,0.184 -0.37,0.416 -0.545,0.627 -0.184,0.207 -0.303,0.452 -0.451,0.677 -0.152,0.223 -0.255,0.471 -0.374,0.708 -0.124,0.236 -0.222,0.481 -0.313,0.729 -0.206,0.485 -0.321,0.999 -0.466,1.497 -0.016,0.053 0.014,0.108 0.067,0.124 0.048,0.014 0.098,-0.009 0.119,-0.053 l 0.003,-0.008 c 0.221,-0.465 0.427,-0.933 0.684,-1.37 0.118,-0.224 0.242,-0.444 0.389,-0.648 0.142,-0.206 0.267,-0.424 0.434,-0.607 0.163,-0.185 0.3,-0.394 0.486,-0.55 0.178,-0.162 0.338,-0.348 0.538,-0.472 0.371,-0.288 0.776,-0.513 1.198,-0.625 0.205,-0.084 0.429,-0.064 0.637,-0.108 0.216,0.026 0.428,0.003 0.639,0.062 0.211,0.057 0.422,0.088 0.623,0.195 0.205,0.079 0.405,0.173 0.595,0.306 0.197,0.108 0.384,0.239 0.562,0.395 0.183,0.141 0.362,0.287 0.525,0.464 0.165,0.172 0.348,0.315 0.499,0.508 l 0.47,0.546 c 0.289,0.334 0.794,0.371 1.129,0.083 0.193,-0.167 0.287,-0.406 0.277,-0.642 l -0.004,-0.076 -0.045,-0.909 -0.024,-0.453 0.036,-0.435 c 0.041,-0.282 0.009,-0.595 0.095,-0.849 0.079,-0.253 0.098,-0.548 0.213,-0.765 0.127,-0.2 0.175,-0.481 0.348,-0.611 0.072,-0.08 0.139,-0.163 0.204,-0.249 l 0.257,-0.163 c 0.141,-0.15 0.388,-0.136 0.568,-0.232 0.236,0.002 0.446,-0.071 0.701,-0.028 0.251,0.033 0.499,0.036 0.761,0.131 0.26,0.062 0.519,0.141 0.776,0.267 0.261,0.098 0.516,0.221 0.763,0.375 0.253,0.133 0.5,0.282 0.733,0.461 0.238,0.168 0.485,0.324 0.703,0.523 0.222,0.193 0.466,0.361 0.665,0.58 0.204,0.213 0.427,0.408 0.617,0.633 l 0.565,0.679 c 0.382,0.458 1.062,0.52 1.52,0.139 0.282,-0.235 0.414,-0.583 0.385,-0.922 l -0.002,-0.018 -0.087,-0.954 c -0.059,-0.322 -0.011,-0.629 -0.01,-0.942 l 0.014,-0.47 0.089,-0.446 c 0.049,-0.303 0.107,-0.602 0.232,-0.868 l 0.153,-0.417 c 0.06,-0.133 0.147,-0.246 0.217,-0.372 0.077,-0.12 0.141,-0.252 0.225,-0.366 l 0.283,-0.305 c 0.167,-0.237 0.42,-0.347 0.631,-0.521 0.23,-0.138 0.484,-0.232 0.734,-0.323 0.267,-0.022 0.524,-0.14 0.801,-0.088 l 0.41,0.014 0.408,0.107 c 0.282,0.037 0.537,0.19 0.803,0.316 0.28,0.098 0.497,0.335 0.75,0.503 0.264,0.158 0.448,0.433 0.674,0.651 0.234,0.215 0.407,0.492 0.59,0.762 0.183,0.269 0.379,0.531 0.517,0.838 l 0.462,0.891 0.042,0.08 c 0.171,0.331 0.578,0.46 0.909,0.289 0.266,-0.139 0.402,-0.431 0.354,-0.712 l -0.252,-1.489 c -0.048,-0.495 -0.145,-0.997 -0.155,-1.49 -0.04,-0.499 -0.036,-0.99 -0.013,-1.479 0.036,-0.484 0.105,-0.96 0.243,-1.403 0.16,-0.417 0.351,-0.847 0.707,-1.064 0.338,-0.232 0.772,-0.335 1.237,-0.29 0.463,0.047 0.935,0.179 1.388,0.378 0.457,0.182 0.899,0.425 1.331,0.683 1.712,1.067 3.251,2.434 4.661,3.905 1.406,1.477 2.742,3.029 3.994,4.625 0.245,0.314 0.699,0.368 1.013,0.122 0.161,-0.126 0.254,-0.308 0.272,-0.497 l 0.01,-0.104 c 0.05,-0.524 0.06,-1.059 0.141,-1.569 l 0.096,-0.768 0.152,-0.737 c 0.117,-0.479 0.279,-0.922 0.464,-1.305 0.212,-0.343 0.436,-0.622 0.682,-0.698 0.245,-0.08 0.59,-0.071 0.99,0.051 0.401,0.146 0.825,0.356 1.229,0.644 0.813,0.56 1.584,1.273 2.315,2.025 1.452,1.526 2.756,3.239 3.94,5.029 0.589,0.897 1.146,1.818 1.66,2.764 0.505,0.959 0.948,1.916 1.27,2.968 0.016,0.053 0.072,0.083 0.125,0.067 C -0.024,0.096 0.004,0.046 0,0" style="fill:#1c1c1b;fill-opacity:1;fill-rule:nonzero;stroke:none" id="path352"></path>
              </g>
            </g>
          </g>
        </g>
        <g id="g360" transform="translate(95.6646,335.7778)">
          <path d="m 0,0 c -2.084,-5.462 -4.912,-11.785 -3.957,-17.797 1.071,-6.749 6.159,-11.796 10.866,-16.354 1.157,-1.121 2.927,0.645 1.767,1.768 -4.204,4.071 -8.736,8.431 -10.077,14.338 -1.29,5.678 1.843,12.221 3.812,17.38 C 2.987,0.844 0.569,1.49 0,0" style="fill:#634e42;fill-opacity:1;fill-rule:nonzero;stroke:none" id="path362"></path>
        </g>
        <g id="g364" transform="matrix(1, 0, 0, 1, 100.010132, 299.790985)">
          <path d="M 0,0 C 0.161,1.455 -0.22,3.662 0.843,4.821 2.347,6.46 5.968,4.276 7.452,3.588 8.905,2.914 10.175,5.069 8.714,5.746 6.178,6.922 2.799,8.818 0.015,7.244 -2.671,5.726 -2.208,2.638 -2.5,0 -2.677,-1.601 -0.175,-1.584 0,0" style="fill:#634e42;fill-opacity:1;fill-rule:nonzero;stroke:none" id="path366"></path>
        </g>
      </g>
    </g>
  </g>
</svg>